<?xml version="1.0" standalone="no"?>
<!DOCTYPE svg PUBLIC "-//W3C//DTD SVG 20010904//EN"
 "http://www.w3.org/TR/2001/REC-SVG-20010904/DTD/svg10.dtd">
<svg version="1.0" xmlns="http://www.w3.org/2000/svg"
 width="48px" height="48px" viewBox="0 0 512.000000 512.000000"
 preserveAspectRatio="xMidYMid meet">

<g transform="translate(0.000000,512.000000) scale(0.100000,-0.100000)"
fill="#000000" stroke="none">
<path d="M0 2560 l0 -2560 2560 0 2560 0 0 2560 0 2560 -2560 0 -2560 0 0
-2560z m3822 2344 c21 -4 35 -10 33 -14 -6 -9 45 -24 53 -15 3 3 -2 5 -11 5
-9 0 -18 4 -22 10 -3 5 7 5 25 -1 31 -11 50 -29 30 -29 -8 0 -10 -9 -6 -25 5
-21 3 -25 -18 -25 -27 0 -56 -28 -39 -38 5 -4 13 -23 16 -42 5 -24 4 -30 -2
-20 -6 8 -13 12 -16 9 -7 -8 15 -59 26 -59 4 0 10 -11 13 -25 4 -14 11 -25 16
-25 5 0 7 -6 4 -14 -3 -7 2 -21 11 -30 9 -9 14 -20 10 -26 -3 -5 -1 -20 6 -32
20 -40 51 -58 100 -58 42 0 48 3 53 25 3 13 16 34 28 45 12 11 19 23 15 26 -3
4 1 13 9 21 8 9 13 22 10 29 -3 8 -1 14 3 14 11 0 33 59 26 70 -3 5 3 16 12
26 10 9 18 33 18 55 1 32 -2 39 -18 39 -10 0 -15 5 -12 10 3 6 -1 13 -9 16
-19 7 -22 44 -3 44 9 0 9 2 -1 9 -23 14 14 22 124 28 107 6 198 -2 189 -17 -3
-5 3 -15 14 -21 17 -11 17 -14 4 -27 -10 -11 -11 -17 -3 -22 13 -8 -36 -20
-81 -20 -29 0 -56 -31 -44 -50 3 -6 1 -10 -6 -10 -7 0 -10 -3 -6 -6 3 -3 -8
-19 -25 -36 -17 -16 -27 -35 -24 -44 3 -7 2 -14 -3 -14 -11 0 -32 -50 -26 -61
4 -5 1 -9 -5 -9 -7 0 -10 -6 -7 -12 2 -7 -4 -20 -13 -28 -23 -21 -42 -58 -35
-70 3 -6 1 -10 -5 -10 -6 0 -8 -4 -5 -10 3 -5 1 -10 -5 -10 -6 0 -9 -4 -6 -9
3 -5 -1 -12 -10 -15 -11 -4 -14 -13 -11 -27 4 -15 0 -23 -12 -26 -23 -6 -84
-143 -75 -167 5 -12 1 -19 -15 -23 -15 -4 -31 -26 -51 -71 -17 -35 -30 -71
-30 -78 0 -8 -9 -14 -19 -14 -11 0 -26 -7 -35 -15 -20 -20 -25 -19 -55 13 -43
48 -59 69 -66 91 -3 12 -11 21 -16 21 -6 0 -7 5 -4 11 4 5 -3 33 -15 61 -20
48 -27 59 -57 92 -7 8 -9 16 -6 19 8 9 -18 68 -27 62 -5 -3 -6 4 -3 14 6 22
-23 71 -42 71 -16 0 -26 25 -19 45 4 8 1 15 -6 15 -6 0 -9 4 -6 9 8 12 -4 42
-14 36 -4 -3 -11 2 -14 11 -3 8 -2 12 4 9 14 -9 13 -1 -7 40 -9 19 -23 35 -30
35 -7 0 -14 6 -14 13 -1 6 -3 19 -4 27 -1 8 -3 21 -4 28 0 7 -6 10 -13 6 -7
-4 -8 -3 -4 5 9 15 -20 62 -37 60 -35 -4 -53 4 -64 28 -16 34 -16 44 -1 41 7
-2 12 2 13 9 0 19 11 25 67 39 56 13 247 18 310 8z m-1294 -864 l172 0 0 -70
c0 -38 -3 -70 -8 -70 -4 0 -6 -48 -4 -106 3 -76 1 -105 -7 -100 -10 7 -7 -33
5 -73 4 -12 -15 -13 -118 -6 -68 4 -405 9 -751 9 -547 2 -627 0 -622 -13 3 -8
1 -17 -4 -20 -10 -7 -22 -227 -20 -397 0 -73 -3 -114 -11 -119 -6 -4 -9 -14
-6 -23 9 -27 10 -195 2 -223 l-7 -26 523 3 c616 4 771 4 777 -2 3 -3 0 -41 -7
-86 -6 -44 -9 -85 -5 -91 14 -23 11 -108 -3 -114 -15 -5 -20 -33 -6 -33 5 0 8
-24 8 -52 l0 -53 -656 0 -657 0 5 -42 c2 -24 1 -43 -4 -43 -5 0 -7 -56 -5
-125 1 -69 0 -133 -4 -143 -4 -9 -7 -68 -5 -129 1 -75 -2 -113 -9 -113 -7 0
-11 -44 -11 -130 l0 -130 388 0 c213 0 546 5 741 10 284 8 356 8 363 -2 10
-16 11 -118 1 -118 -5 0 -6 -38 -4 -85 2 -51 -1 -85 -7 -85 -5 0 -7 -27 -5
-67 l5 -68 -1071 0 c-1064 0 -1071 0 -1071 20 0 14 3 16 9 7 4 -7 6 24 4 70
-3 51 -1 78 5 70 5 -8 7 19 4 69 -3 46 -1 80 4 76 5 -3 10 55 12 131 1 83 6
140 14 149 6 7 10 43 10 80 -1 36 2 71 5 77 4 5 6 52 4 103 -1 51 1 93 6 93 4
0 6 52 5 116 -2 66 0 114 5 111 5 -3 7 49 5 120 -3 71 -1 123 4 120 5 -3 7 50
5 120 -2 69 1 123 5 120 5 -3 7 58 6 134 -2 77 -1 146 2 154 3 8 8 122 11 252
3 131 7 281 10 333 10 191 10 247 2 327 l-8 83 568 2 c312 2 717 2 898 0 182
-1 408 -2 503 -2z m1516 -361 c27 0 28 -2 11 -10 -16 -7 -14 -8 10 -4 17 3 44
1 60 -4 17 -5 24 -10 18 -10 -7 -1 -13 -6 -13 -11 0 -13 73 -2 78 11 5 12 52
11 52 -1 0 -5 7 -10 16 -10 8 0 13 -4 10 -9 -3 -5 7 -22 22 -39 15 -16 26 -34
24 -40 -1 -5 8 -22 22 -36 15 -14 26 -35 26 -46 0 -23 -21 -50 -39 -50 -5 0
-14 -7 -19 -16 -11 -19 -52 -11 -52 10 0 18 -30 42 -62 50 -18 4 -25 11 -22
20 7 18 -35 47 -62 44 -10 -1 -39 1 -64 6 -28 4 -56 3 -73 -3 -18 -7 -26 -7
-22 -1 9 15 -11 12 -27 -3 -8 -8 -13 -35 -12 -69 1 -68 22 -102 64 -104 65 -3
66 -3 50 -15 -12 -8 -10 -10 10 -5 35 8 161 -31 154 -48 -5 -14 35 -36 67 -36
11 0 18 -4 15 -9 -3 -4 16 -31 42 -58 26 -28 46 -55 44 -62 -2 -6 0 -11 5 -11
5 0 9 -31 10 -70 1 -40 -3 -70 -9 -70 -5 0 -8 -5 -6 -12 3 -7 -13 -30 -34 -52
-21 -23 -36 -47 -34 -53 3 -8 -10 -17 -34 -23 -39 -11 -51 -25 -28 -32 7 -3 6
-7 -5 -11 -9 -3 -17 -2 -17 3 0 6 -5 10 -11 10 -6 0 -8 -7 -5 -17 4 -10 4 -14
0 -10 -4 4 -13 2 -21 -4 -9 -9 -13 -8 -13 0 0 6 -7 11 -15 11 -8 0 -15 -4 -15
-10 0 -5 -7 -10 -15 -10 -8 0 -15 -4 -15 -9 0 -29 -291 -28 -311 1 -3 4 -24 9
-46 11 -27 1 -39 6 -36 15 6 14 -13 17 -22 2 -4 -6 -15 -5 -30 2 -13 6 -22 15
-19 19 3 5 2 14 -2 20 -5 8 -9 8 -14 -1 -5 -8 -9 -7 -13 5 -4 9 -3 13 3 10 13
-8 13 -2 -2 30 -6 14 -15 25 -21 25 -5 0 -7 7 -3 15 3 8 1 15 -5 15 -6 0 -8 8
-4 19 3 10 -1 24 -10 31 -20 17 -20 70 0 70 9 0 20 10 24 23 8 20 10 20 16 4
4 -10 13 -16 21 -13 7 3 18 -3 26 -12 7 -9 8 -13 1 -9 -7 5 -9 0 -6 -13 3 -11
10 -23 16 -27 7 -4 8 0 3 13 -4 10 -3 15 1 10 4 -4 8 -18 8 -29 0 -12 5 -21
11 -20 7 1 11 -5 10 -15 -1 -11 6 -17 19 -17 14 0 19 -6 17 -19 -3 -14 1 -17
12 -13 10 4 16 1 16 -7 0 -15 27 -29 39 -21 5 2 33 0 63 -5 36 -5 71 -5 99 2
24 6 54 10 67 9 12 0 22 3 23 7 0 4 2 29 3 56 1 44 -1 50 -25 60 -14 6 -24 17
-22 24 5 13 4 14 -44 18 -58 4 -162 44 -157 59 6 13 -25 29 -58 30 -10 0 -18
5 -19 10 -1 14 -20 35 -31 35 -5 0 -6 -6 -2 -12 4 -7 5 -11 1 -8 -3 3 -5 9 -6
13 0 11 -41 47 -53 47 -5 0 -6 4 -3 10 9 14 -14 52 -27 44 -7 -5 -9 1 -4 20 4
16 2 26 -5 26 -7 0 -9 9 -5 26 5 17 3 23 -4 19 -6 -4 -10 4 -10 20 0 17 4 24
11 19 8 -4 9 0 4 15 -4 12 -2 21 4 21 6 0 11 5 11 11 0 5 -4 8 -9 5 -5 -4 -7
3 -4 14 3 11 9 17 14 15 10 -7 32 32 24 44 -3 5 4 12 15 16 11 3 20 12 20 19
0 8 8 20 17 27 14 12 16 12 9 0 -6 -9 -5 -12 5 -9 8 3 13 10 12 16 -3 14 34
35 46 27 15 -9 43 7 37 21 -3 7 4 16 17 20 37 12 130 22 161 18 16 -2 43 -4
60 -5z m-285 -1266 c21 -23 71 -108 71 -121 0 -21 65 -122 78 -122 7 0 10 -4
7 -10 -3 -5 -1 -10 5 -10 6 0 8 -5 4 -12 -5 -8 -2 -9 11 -4 16 6 16 4 4 -11
-12 -15 -12 -16 5 -10 16 6 17 5 7 -7 -10 -12 -9 -21 5 -44 16 -27 22 -30 74
-30 45 0 59 4 69 20 6 10 9 23 6 28 -4 6 -1 10 4 10 6 0 11 7 11 15 0 8 4 15
10 15 14 0 72 120 66 136 -3 9 2 14 14 14 11 0 20 6 20 14 0 7 12 30 26 51 14
21 23 44 20 52 -15 37 187 68 222 34 11 -11 17 -12 19 -4 3 8 12 9 28 3 12 -5
26 -6 31 -2 4 4 4 2 0 -5 -4 -7 -1 -21 6 -32 10 -17 9 -24 -10 -44 -12 -13
-22 -28 -22 -35 0 -6 -8 -15 -17 -21 -15 -8 -18 -21 -15 -71 1 -34 -1 -59 -5
-57 -5 3 -8 -73 -8 -169 0 -96 4 -174 9 -174 4 0 6 -29 4 -65 -2 -36 0 -65 5
-65 5 0 6 -11 3 -25 -4 -17 -2 -25 6 -25 7 0 18 -10 23 -22 6 -13 18 -22 27
-22 10 1 15 -2 12 -7 -3 -5 0 -9 5 -9 6 0 11 -7 11 -16 0 -8 -3 -13 -8 -10 -4
2 -16 -3 -27 -11 -19 -15 -19 -15 5 -9 16 4 13 0 -10 -10 -70 -33 -360 -28
-394 6 -8 8 -6 9 9 5 20 -6 20 -6 0 11 l-20 18 21 21 c12 12 30 25 39 29 10 3
15 12 11 21 -3 8 -1 15 5 15 7 0 8 12 3 33 -9 40 -9 210 0 225 9 15 -4 42 -20
42 -8 0 -14 -4 -14 -10 0 -5 -7 -10 -15 -10 -8 0 -15 5 -15 10 0 43 -73 -42
-76 -89 -2 -39 -3 -41 -17 -41 -13 0 -80 -137 -76 -156 4 -24 -2 -44 -15 -44
-21 0 -30 -19 -16 -35 8 -10 8 -15 -1 -21 -8 -5 -9 -3 -4 6 6 10 4 12 -8 7
-23 -9 -47 2 -41 18 3 7 -2 19 -10 28 -8 8 -12 17 -9 21 4 3 1 6 -5 6 -6 0 -9
6 -6 14 7 18 -30 92 -50 99 -9 4 -13 13 -10 22 3 8 1 15 -5 15 -6 0 -8 6 -5
14 3 7 -1 20 -9 27 -7 8 -12 19 -10 25 2 7 -3 18 -11 27 -8 8 -12 17 -9 21 10
10 -35 47 -69 57 -18 5 -34 6 -37 4 -6 -7 -1 -312 6 -334 4 -14 3 -14 -6 -1
-6 9 -11 10 -11 3 0 -21 31 -44 51 -38 13 5 19 1 19 -10 0 -9 5 -13 10 -10 6
3 10 -3 10 -14 0 -38 -53 -55 -175 -56 -135 0 -159 10 -143 58 13 37 27 49 47
42 20 -8 31 14 24 49 -4 17 -2 27 4 23 6 -4 8 17 5 55 -3 34 -1 58 4 55 5 -3
9 101 9 238 0 134 -4 238 -8 232 -5 -7 -7 -2 -3 12 7 34 -11 63 -34 56 -12 -4
-23 1 -33 15 -11 16 -16 18 -20 8 -3 -7 -6 -3 -6 10 -1 13 3 21 8 18 11 -7 23
22 15 35 -3 5 3 9 14 9 10 0 22 3 26 7 3 4 25 8 48 10 23 2 43 5 44 6 1 1 37
1 79 0 60 -2 81 -6 94 -20z m125 -169 c3 -8 2 -12 -4 -9 -6 3 -10 10 -10 16 0
14 7 11 14 -7z m-457 -696 c-3 -8 -6 -5 -6 6 -1 11 2 17 5 13 3 -3 4 -12 1
-19z m433 -418 c30 -6 55 -12 57 -14 2 -1 5 -22 7 -44 2 -31 0 -42 -10 -42 -8
0 -14 -4 -14 -9 0 -5 -9 -7 -20 -4 -14 4 -23 -2 -32 -23 -10 -22 -10 -28 0
-32 9 -3 12 -37 12 -123 0 -97 -3 -121 -15 -125 -16 -6 -21 -34 -6 -34 9 0 7
-59 -4 -102 -6 -22 -4 -28 9 -28 9 0 16 -7 16 -15 0 -8 -4 -15 -10 -15 -5 0
-10 -5 -10 -11 0 -6 7 -9 15 -5 8 3 15 1 15 -3 0 -5 -6 -11 -12 -14 -19 -7 13
-61 37 -65 37 -6 67 -25 53 -34 -27 -17 15 -26 108 -23 70 2 97 7 109 19 17
16 29 20 54 16 22 -3 62 41 55 62 -3 10 -1 18 5 18 7 0 10 89 10 265 l-1 264
-24 27 c-19 20 -31 24 -50 20 -18 -5 -24 -3 -19 5 4 6 2 15 -6 20 -11 6 -9 12
6 29 16 17 27 21 55 16 24 -4 30 -3 20 4 -21 14 174 13 223 -1 26 -7 37 -15
37 -29 0 -12 7 -20 18 -20 14 0 15 -2 2 -9 -8 -6 -18 -8 -22 -5 -14 9 -48 -16
-64 -48 -13 -26 -16 -66 -15 -249 1 -124 -3 -220 -8 -223 -5 -3 -7 -24 -4 -46
4 -28 2 -40 -7 -40 -6 0 -10 -6 -8 -12 3 -7 -2 -19 -9 -27 -8 -7 -12 -20 -9
-27 3 -8 2 -14 -3 -14 -4 0 -14 -11 -21 -25 -7 -14 -19 -25 -25 -25 -13 0 -61
-52 -57 -62 2 -9 -11 -11 -43 -9 -15 1 -17 0 -7 -7 15 -10 -85 -42 -132 -42
-15 0 -25 -4 -21 -10 4 -6 -32 -10 -100 -10 -58 0 -104 4 -101 9 3 5 -17 11
-45 15 -31 4 -47 11 -43 17 4 7 -1 9 -14 5 -21 -7 -74 12 -67 24 6 10 -23 24
-50 24 -13 1 -21 9 -23 24 -2 15 -9 22 -17 18 -9 -3 -12 0 -9 8 3 8 0 17 -6
21 -6 4 -15 18 -20 31 -5 13 -16 24 -24 24 -17 0 -29 44 -20 72 4 14 3 18 -6
13 -8 -5 -11 55 -9 243 1 242 1 252 -20 278 -12 15 -24 24 -27 21 -11 -11 -44
13 -43 31 0 14 2 14 9 -3 7 -17 9 -15 9 13 1 17 6 32 11 32 6 0 10 -4 10 -10
0 -18 18 -11 23 9 3 13 16 21 38 24 70 8 258 7 309 -3z m97 -72 c-3 -8 -6 -5
-6 6 -1 11 2 17 5 13 3 -3 4 -12 1 -19z m293 -622 c0 -2 -8 -10 -17 -17 -16
-13 -17 -12 -4 4 13 16 21 21 21 13z"/>
<path d="M3915 400 c3 -5 11 -10 16 -10 6 0 7 5 4 10 -3 6 -11 10 -16 10 -6 0
-7 -4 -4 -10z"/>
</g>
</svg>
